<?xml version="1.0" encoding="UTF-8" standalone="no"?>
<!DOCTYPE svg PUBLIC "-//W3C//DTD SVG 1.1//EN"
 "http://www.w3.org/Graphics/SVG/1.1/DTD/svg11.dtd">
<!-- Generated by graphviz version 2.40.1 (0)
 -->
<!-- Title: %3 Pages: 1 -->
<svg width="2064pt" height="548pt"
 viewBox="0.00 0.00 2064.00 548.00" xmlns="http://www.w3.org/2000/svg" xmlns:xlink="http://www.w3.org/1999/xlink">
<g id="graph0" class="graph" transform="scale(1 1) rotate(0) translate(4 544)">
<title>%3</title>
<polygon fill="#ffffff" stroke="transparent" points="-4,4 -4,-544 2060,-544 2060,4 -4,4"/>
<!-- [root] azurerm_linux_virtual_machine.vmlinux (expand) -->
<g id="node1" class="node">
<title>[root] azurerm_linux_virtual_machine.vmlinux (expand)</title>
<polygon fill="none" stroke="#000000" points="770.5,-396 529.5,-396 529.5,-360 770.5,-360 770.5,-396"/>
<text text-anchor="middle" x="650" y="-374.3" font-family="Times,serif" font-size="14.00" fill="#000000">azurerm_linux_virtual_machine.vmlinux</text>
</g>
<!-- [root] azurerm_network_interface.linux_nic (expand) -->
<g id="node2" class="node">
<title>[root] azurerm_network_interface.linux_nic (expand)</title>
<polygon fill="none" stroke="#000000" points="449.5,-324 228.5,-324 228.5,-288 449.5,-288 449.5,-324"/>
<text text-anchor="middle" x="339" y="-302.3" font-family="Times,serif" font-size="14.00" fill="#000000">azurerm_network_interface.linux_nic</text>
</g>
<!-- [root] azurerm_linux_virtual_machine.vmlinux (expand)&#45;&gt;[root] azurerm_network_interface.linux_nic (expand) -->
<g id="edge1" class="edge">
<title>[root] azurerm_linux_virtual_machine.vmlinux (expand)&#45;&gt;[root] azurerm_network_interface.linux_nic (expand)</title>
<path fill="none" stroke="#000000" d="M571.923,-359.9243C527.7524,-349.6983 472.3921,-336.8818 426.7267,-326.3097"/>
<polygon fill="#000000" stroke="#000000" points="427.3711,-322.8664 416.8393,-324.0207 425.7922,-329.686 427.3711,-322.8664"/>
</g>
<!-- [root] var.Admin_user_name -->
<g id="node22" class="node">
<title>[root] var.Admin_user_name</title>
<polygon fill="none" stroke="#000000" points="602,-324 468,-324 468,-288 608,-288 608,-318 602,-324"/>
<polyline fill="none" stroke="#000000" points="602,-324 602,-318 "/>
<polyline fill="none" stroke="#000000" points="608,-318 602,-318 "/>
<text text-anchor="middle" x="538" y="-302.3" font-family="Times,serif" font-size="14.00" fill="#000000">var.Admin_user_name</text>
</g>
<!-- [root] azurerm_linux_virtual_machine.vmlinux (expand)&#45;&gt;[root] var.Admin_user_name -->
<g id="edge2" class="edge">
<title>[root] azurerm_linux_virtual_machine.vmlinux (expand)&#45;&gt;[root] var.Admin_user_name</title>
<path fill="none" stroke="#000000" d="M621.7377,-359.8314C607.5448,-350.7074 590.1718,-339.539 574.9364,-329.7449"/>
<polygon fill="#000000" stroke="#000000" points="576.5578,-326.6263 566.2533,-324.1628 572.7724,-332.5146 576.5578,-326.6263"/>
</g>
<!-- [root] var.Os_disk_attributes -->
<g id="node23" class="node">
<title>[root] var.Os_disk_attributes</title>
<polygon fill="none" stroke="#000000" points="757.5,-324 626.5,-324 626.5,-288 763.5,-288 763.5,-318 757.5,-324"/>
<polyline fill="none" stroke="#000000" points="757.5,-324 757.5,-318 "/>
<polyline fill="none" stroke="#000000" points="763.5,-318 757.5,-318 "/>
<text text-anchor="middle" x="695" y="-302.3" font-family="Times,serif" font-size="14.00" fill="#000000">var.Os_disk_attributes</text>
</g>
<!-- [root] azurerm_linux_virtual_machine.vmlinux (expand)&#45;&gt;[root] var.Os_disk_attributes -->
<g id="edge3" class="edge">
<title>[root] azurerm_linux_virtual_machine.vmlinux (expand)&#45;&gt;[root] var.Os_disk_attributes</title>
<path fill="none" stroke="#000000" d="M661.3554,-359.8314C666.4326,-351.7079 672.5227,-341.9637 678.1176,-333.0118"/>
<polygon fill="#000000" stroke="#000000" points="681.1597,-334.7483 683.4917,-324.4133 675.2237,-331.0383 681.1597,-334.7483"/>
</g>
<!-- [root] var.linux_offer -->
<g id="node25" class="node">
<title>[root] var.linux_offer</title>
<polygon fill="none" stroke="#000000" points="872,-324 782,-324 782,-288 878,-288 878,-318 872,-324"/>
<polyline fill="none" stroke="#000000" points="872,-324 872,-318 "/>
<polyline fill="none" stroke="#000000" points="878,-318 872,-318 "/>
<text text-anchor="middle" x="830" y="-302.3" font-family="Times,serif" font-size="14.00" fill="#000000">var.linux_offer</text>
</g>
<!-- [root] azurerm_linux_virtual_machine.vmlinux (expand)&#45;&gt;[root] var.linux_offer -->
<g id="edge4" class="edge">
<title>[root] azurerm_linux_virtual_machine.vmlinux (expand)&#45;&gt;[root] var.linux_offer</title>
<path fill="none" stroke="#000000" d="M695.4216,-359.8314C719.7095,-350.1162 749.7922,-338.0831 775.352,-327.8592"/>
<polygon fill="#000000" stroke="#000000" points="776.9201,-331.0016 784.905,-324.038 774.3204,-324.5023 776.9201,-331.0016"/>
</g>
<!-- [root] var.linux_publisher -->
<g id="node26" class="node">
<title>[root] var.linux_publisher</title>
<polygon fill="none" stroke="#000000" points="1011.5,-324 896.5,-324 896.5,-288 1017.5,-288 1017.5,-318 1011.5,-324"/>
<polyline fill="none" stroke="#000000" points="1011.5,-324 1011.5,-318 "/>
<polyline fill="none" stroke="#000000" points="1017.5,-318 1011.5,-318 "/>
<text text-anchor="middle" x="957" y="-302.3" font-family="Times,serif" font-size="14.00" fill="#000000">var.linux_publisher</text>
</g>
<!-- [root] azurerm_linux_virtual_machine.vmlinux (expand)&#45;&gt;[root] var.linux_publisher -->
<g id="edge5" class="edge">
<title>[root] azurerm_linux_virtual_machine.vmlinux (expand)&#45;&gt;[root] var.linux_publisher</title>
<path fill="none" stroke="#000000" d="M731.5728,-359.9985C774.8326,-350.3133 829.1102,-337.9438 886.3559,-324.1256"/>
<polygon fill="#000000" stroke="#000000" points="887.4239,-327.4682 896.3193,-321.713 885.7765,-320.6648 887.4239,-327.4682"/>
</g>
<!-- [root] var.linux_sku -->
<g id="node27" class="node">
<title>[root] var.linux_sku</title>
<polygon fill="none" stroke="#000000" points="1118.5,-324 1035.5,-324 1035.5,-288 1124.5,-288 1124.5,-318 1118.5,-324"/>
<polyline fill="none" stroke="#000000" points="1118.5,-324 1118.5,-318 "/>
<polyline fill="none" stroke="#000000" points="1124.5,-318 1118.5,-318 "/>
<text text-anchor="middle" x="1080" y="-302.3" font-family="Times,serif" font-size="14.00" fill="#000000">var.linux_sku</text>
</g>
<!-- [root] azurerm_linux_virtual_machine.vmlinux (expand)&#45;&gt;[root] var.linux_sku -->
<g id="edge6" class="edge">
<title>[root] azurerm_linux_virtual_machine.vmlinux (expand)&#45;&gt;[root] var.linux_sku</title>
<path fill="none" stroke="#000000" d="M770.5857,-360.941C865.9614,-347.4133 988.0398,-330.0079 1025.4352,-323.4895"/>
<polygon fill="#000000" stroke="#000000" points="1026.2401,-326.8987 1035.3887,-321.5552 1024.9047,-320.0272 1026.2401,-326.8987"/>
</g>
<!-- [root] var.linux_version -->
<g id="node28" class="node">
<title>[root] var.linux_version</title>
<polygon fill="none" stroke="#000000" points="104,-324 0,-324 0,-288 110,-288 110,-318 104,-324"/>
<polyline fill="none" stroke="#000000" points="104,-324 104,-318 "/>
<polyline fill="none" stroke="#000000" points="110,-318 104,-318 "/>
<text text-anchor="middle" x="55" y="-302.3" font-family="Times,serif" font-size="14.00" fill="#000000">var.linux_version</text>
</g>
<!-- [root] azurerm_linux_virtual_machine.vmlinux (expand)&#45;&gt;[root] var.linux_version -->
<g id="edge7" class="edge">
<title>[root] azurerm_linux_virtual_machine.vmlinux (expand)&#45;&gt;[root] var.linux_version</title>
<path fill="none" stroke="#000000" d="M529.4655,-371.6957C423.7095,-364.7877 265.7947,-351.1371 120.0412,-324.0152"/>
<polygon fill="#000000" stroke="#000000" points="120.4897,-320.5382 110.0143,-322.1243 119.1924,-327.4169 120.4897,-320.5382"/>
</g>
<!-- [root] var.vm_size -->
<g id="node38" class="node">
<title>[root] var.vm_size</title>
<polygon fill="none" stroke="#000000" points="204,-324 128,-324 128,-288 210,-288 210,-318 204,-324"/>
<polyline fill="none" stroke="#000000" points="204,-324 204,-318 "/>
<polyline fill="none" stroke="#000000" points="210,-318 204,-318 "/>
<text text-anchor="middle" x="169" y="-302.3" font-family="Times,serif" font-size="14.00" fill="#000000">var.vm_size</text>
</g>
<!-- [root] azurerm_linux_virtual_machine.vmlinux (expand)&#45;&gt;[root] var.vm_size -->
<g id="edge8" class="edge">
<title>[root] azurerm_linux_virtual_machine.vmlinux (expand)&#45;&gt;[root] var.vm_size</title>
<path fill="none" stroke="#000000" d="M529.3539,-370.054C444.7774,-362.8039 329.225,-349.5311 220.1174,-323.993"/>
<polygon fill="#000000" stroke="#000000" points="220.7956,-320.5567 210.257,-321.647 219.1753,-327.3666 220.7956,-320.5567"/>
</g>
<!-- [root] azurerm_public_ip.linux_pip (expand) -->
<g id="node5" class="node">
<title>[root] azurerm_public_ip.linux_pip (expand)</title>
<polygon fill="none" stroke="#000000" points="478.5,-252 303.5,-252 303.5,-216 478.5,-216 478.5,-252"/>
<text text-anchor="middle" x="391" y="-230.3" font-family="Times,serif" font-size="14.00" fill="#000000">azurerm_public_ip.linux_pip</text>
</g>
<!-- [root] azurerm_network_interface.linux_nic (expand)&#45;&gt;[root] azurerm_public_ip.linux_pip (expand) -->
<g id="edge9" class="edge">
<title>[root] azurerm_network_interface.linux_nic (expand)&#45;&gt;[root] azurerm_public_ip.linux_pip (expand)</title>
<path fill="none" stroke="#000000" d="M352.1218,-287.8314C358.0499,-279.6232 365.1729,-269.7606 371.6933,-260.7323"/>
<polygon fill="#000000" stroke="#000000" points="374.684,-262.5693 377.7015,-252.4133 369.0092,-258.4708 374.684,-262.5693"/>
</g>
<!-- [root] azurerm_subnet_network_security_group_association.subnet_association (expand) -->
<g id="node9" class="node">
<title>[root] azurerm_subnet_network_security_group_association.subnet_association (expand)</title>
<polygon fill="none" stroke="#000000" points="1291,-252 877,-252 877,-216 1291,-216 1291,-252"/>
<text text-anchor="middle" x="1084" y="-230.3" font-family="Times,serif" font-size="14.00" fill="#000000">azurerm_subnet_network_security_group_association.subnet_association</text>
</g>
<!-- [root] azurerm_network_interface.linux_nic (expand)&#45;&gt;[root] azurerm_subnet_network_security_group_association.subnet_association (expand) -->
<g id="edge10" class="edge">
<title>[root] azurerm_network_interface.linux_nic (expand)&#45;&gt;[root] azurerm_subnet_network_security_group_association.subnet_association (expand)</title>
<path fill="none" stroke="#000000" d="M449.7898,-289.123C452.8916,-288.7336 455.9664,-288.3582 459,-288 594.1849,-272.0371 746.3467,-258.7894 866.6848,-249.4108"/>
<polygon fill="#000000" stroke="#000000" points="867.0581,-252.8924 876.7572,-248.629 866.5163,-245.9134 867.0581,-252.8924"/>
</g>
<!-- [root] azurerm_network_security_group.nsg (expand) -->
<g id="node3" class="node">
<title>[root] azurerm_network_security_group.nsg (expand)</title>
<polygon fill="none" stroke="#000000" points="1194.5,-180 973.5,-180 973.5,-144 1194.5,-144 1194.5,-180"/>
<text text-anchor="middle" x="1084" y="-158.3" font-family="Times,serif" font-size="14.00" fill="#000000">azurerm_network_security_group.nsg</text>
</g>
<!-- [root] azurerm_resource_group.rg2 (expand) -->
<g id="node6" class="node">
<title>[root] azurerm_resource_group.rg2 (expand)</title>
<polygon fill="none" stroke="#000000" points="1148,-108 974,-108 974,-72 1148,-72 1148,-108"/>
<text text-anchor="middle" x="1061" y="-86.3" font-family="Times,serif" font-size="14.00" fill="#000000">azurerm_resource_group.rg2</text>
</g>
<!-- [root] azurerm_network_security_group.nsg (expand)&#45;&gt;[root] azurerm_resource_group.rg2 (expand) -->
<g id="edge11" class="edge">
<title>[root] azurerm_network_security_group.nsg (expand)&#45;&gt;[root] azurerm_resource_group.rg2 (expand)</title>
<path fill="none" stroke="#000000" d="M1078.1961,-143.8314C1075.7092,-136.0463 1072.7469,-126.7729 1069.9875,-118.1347"/>
<polygon fill="#000000" stroke="#000000" points="1073.2591,-116.874 1066.882,-108.4133 1066.591,-119.0041 1073.2591,-116.874"/>
</g>
<!-- [root] var.nsg1 -->
<g id="node30" class="node">
<title>[root] var.nsg1</title>
<polygon fill="none" stroke="#000000" points="1221.5,-108 1166.5,-108 1166.5,-72 1227.5,-72 1227.5,-102 1221.5,-108"/>
<polyline fill="none" stroke="#000000" points="1221.5,-108 1221.5,-102 "/>
<polyline fill="none" stroke="#000000" points="1227.5,-102 1221.5,-102 "/>
<text text-anchor="middle" x="1197" y="-86.3" font-family="Times,serif" font-size="14.00" fill="#000000">var.nsg1</text>
</g>
<!-- [root] azurerm_network_security_group.nsg (expand)&#45;&gt;[root] var.nsg1 -->
<g id="edge12" class="edge">
<title>[root] azurerm_network_security_group.nsg (expand)&#45;&gt;[root] var.nsg1</title>
<path fill="none" stroke="#000000" d="M1112.5147,-143.8314C1126.8342,-134.7074 1144.3624,-123.539 1159.7338,-113.7449"/>
<polygon fill="#000000" stroke="#000000" points="1161.9417,-116.4882 1168.4945,-108.1628 1158.1801,-110.5847 1161.9417,-116.4882"/>
</g>
<!-- [root] azurerm_network_security_group.nsg2 (expand) -->
<g id="node4" class="node">
<title>[root] azurerm_network_security_group.nsg2 (expand)</title>
<polygon fill="none" stroke="#000000" points="1371,-324 1143,-324 1143,-288 1371,-288 1371,-324"/>
<text text-anchor="middle" x="1257" y="-302.3" font-family="Times,serif" font-size="14.00" fill="#000000">azurerm_network_security_group.nsg2</text>
</g>
<!-- [root] azurerm_network_security_group.nsg2 (expand)&#45;&gt;[root] azurerm_resource_group.rg2 (expand) -->
<g id="edge13" class="edge">
<title>[root] azurerm_network_security_group.nsg2 (expand)&#45;&gt;[root] azurerm_resource_group.rg2 (expand)</title>
<path fill="none" stroke="#000000" d="M1142.8184,-289.3852C1139.5096,-288.9166 1136.2313,-288.454 1133,-288 1074.1483,-279.7312 907.0926,-296.7624 868,-252 818.0846,-194.8451 924.4237,-140.7671 998.183,-111.8373"/>
<polygon fill="#000000" stroke="#000000" points="999.8291,-114.9541 1007.9038,-108.0947 997.314,-108.4215 999.8291,-114.9541"/>
</g>
<!-- [root] var.nsg2 -->
<g id="node31" class="node">
<title>[root] var.nsg2</title>
<polygon fill="none" stroke="#000000" points="1364.5,-252 1309.5,-252 1309.5,-216 1370.5,-216 1370.5,-246 1364.5,-252"/>
<polyline fill="none" stroke="#000000" points="1364.5,-252 1364.5,-246 "/>
<polyline fill="none" stroke="#000000" points="1370.5,-246 1364.5,-246 "/>
<text text-anchor="middle" x="1340" y="-230.3" font-family="Times,serif" font-size="14.00" fill="#000000">var.nsg2</text>
</g>
<!-- [root] azurerm_network_security_group.nsg2 (expand)&#45;&gt;[root] var.nsg2 -->
<g id="edge14" class="edge">
<title>[root] azurerm_network_security_group.nsg2 (expand)&#45;&gt;[root] var.nsg2</title>
<path fill="none" stroke="#000000" d="M1277.9444,-287.8314C1288.0691,-279.0485 1300.3777,-268.3712 1311.3548,-258.8489"/>
<polygon fill="#000000" stroke="#000000" points="1313.8019,-261.3595 1319.0623,-252.1628 1309.2149,-256.0718 1313.8019,-261.3595"/>
</g>
<!-- [root] azurerm_public_ip.linux_pip (expand)&#45;&gt;[root] azurerm_resource_group.rg2 (expand) -->
<g id="edge15" class="edge">
<title>[root] azurerm_public_ip.linux_pip (expand)&#45;&gt;[root] azurerm_resource_group.rg2 (expand)</title>
<path fill="none" stroke="#000000" d="M474.8391,-215.9808C600.2598,-189.0248 835.9719,-138.3643 967.0435,-110.1936"/>
<polygon fill="#000000" stroke="#000000" points="968.0294,-113.5617 977.0707,-108.0385 966.5585,-106.718 968.0294,-113.5617"/>
</g>
<!-- [root] var.linux_name -->
<g id="node24" class="node">
<title>[root] var.linux_name</title>
<polygon fill="none" stroke="#000000" points="333.5,-180 238.5,-180 238.5,-144 339.5,-144 339.5,-174 333.5,-180"/>
<polyline fill="none" stroke="#000000" points="333.5,-180 333.5,-174 "/>
<polyline fill="none" stroke="#000000" points="339.5,-174 333.5,-174 "/>
<text text-anchor="middle" x="289" y="-158.3" font-family="Times,serif" font-size="14.00" fill="#000000">var.linux_name</text>
</g>
<!-- [root] azurerm_public_ip.linux_pip (expand)&#45;&gt;[root] var.linux_name -->
<g id="edge17" class="edge">
<title>[root] azurerm_public_ip.linux_pip (expand)&#45;&gt;[root] var.linux_name</title>
<path fill="none" stroke="#000000" d="M365.2611,-215.8314C352.4563,-206.7927 336.8091,-195.7476 323.0281,-186.0198"/>
<polygon fill="#000000" stroke="#000000" points="324.9188,-183.0703 314.7307,-180.1628 320.882,-188.7891 324.9188,-183.0703"/>
</g>
<!-- [root] local.common_tags (expand) -->
<g id="node41" class="node">
<title>[root] local.common_tags (expand)</title>
<ellipse fill="none" stroke="#000000" cx="493" cy="-162" rx="135.6761" ry="18"/>
<text text-anchor="middle" x="493" y="-158.3" font-family="Times,serif" font-size="14.00" fill="#000000">[root] local.common_tags (expand)</text>
</g>
<!-- [root] azurerm_public_ip.linux_pip (expand)&#45;&gt;[root] local.common_tags (expand) -->
<g id="edge16" class="edge">
<title>[root] azurerm_public_ip.linux_pip (expand)&#45;&gt;[root] local.common_tags (expand)</title>
<path fill="none" stroke="#000000" d="M416.7389,-215.8314C429.6415,-206.7237 445.4299,-195.5789 459.2872,-185.7973"/>
<polygon fill="#000000" stroke="#000000" points="461.4714,-188.5397 467.6227,-179.9134 457.4346,-182.8209 461.4714,-188.5397"/>
</g>
<!-- [root] provider[&quot;registry.terraform.io/hashicorp/azurerm&quot;] -->
<g id="node21" class="node">
<title>[root] provider[&quot;registry.terraform.io/hashicorp/azurerm&quot;]</title>
<polygon fill="none" stroke="#000000" points="1061,-36 787.1822,-18 1061,0 1334.8178,-18 1061,-36"/>
<text text-anchor="middle" x="1061" y="-14.3" font-family="Times,serif" font-size="14.00" fill="#000000">provider[&quot;registry.terraform.io/hashicorp/azurerm&quot;]</text>
</g>
<!-- [root] azurerm_resource_group.rg2 (expand)&#45;&gt;[root] provider[&quot;registry.terraform.io/hashicorp/azurerm&quot;] -->
<g id="edge18" class="edge">
<title>[root] azurerm_resource_group.rg2 (expand)&#45;&gt;[root] provider[&quot;registry.terraform.io/hashicorp/azurerm&quot;]</title>
<path fill="none" stroke="#000000" d="M1061,-71.8314C1061,-64.131 1061,-54.9743 1061,-46.4166"/>
<polygon fill="#000000" stroke="#000000" points="1064.5001,-46.4132 1061,-36.4133 1057.5001,-46.4133 1064.5001,-46.4132"/>
</g>
<!-- [root] var.location -->
<g id="node29" class="node">
<title>[root] var.location</title>
<polygon fill="none" stroke="#000000" points="1427,-36 1353,-36 1353,0 1433,0 1433,-30 1427,-36"/>
<polyline fill="none" stroke="#000000" points="1427,-36 1427,-30 "/>
<polyline fill="none" stroke="#000000" points="1433,-30 1427,-30 "/>
<text text-anchor="middle" x="1393" y="-14.3" font-family="Times,serif" font-size="14.00" fill="#000000">var.location</text>
</g>
<!-- [root] azurerm_resource_group.rg2 (expand)&#45;&gt;[root] var.location -->
<g id="edge19" class="edge">
<title>[root] azurerm_resource_group.rg2 (expand)&#45;&gt;[root] var.location</title>
<path fill="none" stroke="#000000" d="M1148.1284,-73.5496C1219.0072,-60.1441 1311.3667,-42.6157 1343.004,-35.6915"/>
<polygon fill="#000000" stroke="#000000" points="1343.8756,-39.0819 1352.7937,-33.3619 1342.255,-32.2721 1343.8756,-39.0819"/>
</g>
<!-- [root] var.rg2 -->
<g id="node33" class="node">
<title>[root] var.rg2</title>
<polygon fill="none" stroke="#000000" points="1499,-36 1451,-36 1451,0 1505,0 1505,-30 1499,-36"/>
<polyline fill="none" stroke="#000000" points="1499,-36 1499,-30 "/>
<polyline fill="none" stroke="#000000" points="1505,-30 1499,-30 "/>
<text text-anchor="middle" x="1478" y="-14.3" font-family="Times,serif" font-size="14.00" fill="#000000">var.rg2</text>
</g>
<!-- [root] azurerm_resource_group.rg2 (expand)&#45;&gt;[root] var.rg2 -->
<g id="edge20" class="edge">
<title>[root] azurerm_resource_group.rg2 (expand)&#45;&gt;[root] var.rg2</title>
<path fill="none" stroke="#000000" d="M1148.0818,-73.4375C1151.0888,-72.9405 1154.0683,-72.4596 1157,-72 1279.9301,-52.7289 1317.9079,-72.0442 1441.0751,-35.7057"/>
<polygon fill="#000000" stroke="#000000" points="1442.3136,-38.988 1450.8778,-32.7506 1440.2932,-32.2859 1442.3136,-38.988"/>
</g>
<!-- [root] azurerm_subnet.subnet (expand) -->
<g id="node7" class="node">
<title>[root] azurerm_subnet.subnet (expand)</title>
<polygon fill="none" stroke="#000000" points="1489.5,-180 1346.5,-180 1346.5,-144 1489.5,-144 1489.5,-180"/>
<text text-anchor="middle" x="1418" y="-158.3" font-family="Times,serif" font-size="14.00" fill="#000000">azurerm_subnet.subnet</text>
</g>
<!-- [root] azurerm_virtual_network.vnet (expand) -->
<g id="node11" class="node">
<title>[root] azurerm_virtual_network.vnet (expand)</title>
<polygon fill="none" stroke="#000000" points="1661.5,-108 1480.5,-108 1480.5,-72 1661.5,-72 1661.5,-108"/>
<text text-anchor="middle" x="1571" y="-86.3" font-family="Times,serif" font-size="14.00" fill="#000000">azurerm_virtual_network.vnet</text>
</g>
<!-- [root] azurerm_subnet.subnet (expand)&#45;&gt;[root] azurerm_virtual_network.vnet (expand) -->
<g id="edge21" class="edge">
<title>[root] azurerm_subnet.subnet (expand)&#45;&gt;[root] azurerm_virtual_network.vnet (expand)</title>
<path fill="none" stroke="#000000" d="M1456.6084,-143.8314C1476.8893,-134.2874 1501.9238,-122.5065 1523.3971,-112.4013"/>
<polygon fill="#000000" stroke="#000000" points="1525.1114,-115.4629 1532.6693,-108.038 1522.1308,-109.1291 1525.1114,-115.4629"/>
</g>
<!-- [root] var.subnet1 -->
<g id="node34" class="node">
<title>[root] var.subnet1</title>
<polygon fill="none" stroke="#000000" points="1454,-108 1382,-108 1382,-72 1460,-72 1460,-102 1454,-108"/>
<polyline fill="none" stroke="#000000" points="1454,-108 1454,-102 "/>
<polyline fill="none" stroke="#000000" points="1460,-102 1454,-102 "/>
<text text-anchor="middle" x="1421" y="-86.3" font-family="Times,serif" font-size="14.00" fill="#000000">var.subnet1</text>
</g>
<!-- [root] azurerm_subnet.subnet (expand)&#45;&gt;[root] var.subnet1 -->
<g id="edge22" class="edge">
<title>[root] azurerm_subnet.subnet (expand)&#45;&gt;[root] var.subnet1</title>
<path fill="none" stroke="#000000" d="M1418.757,-143.8314C1419.0779,-136.131 1419.4594,-126.9743 1419.816,-118.4166"/>
<polygon fill="#000000" stroke="#000000" points="1423.3133,-118.5503 1420.2328,-108.4133 1416.3194,-118.2589 1423.3133,-118.5503"/>
</g>
<!-- [root] var.subnet_space1 -->
<g id="node36" class="node">
<title>[root] var.subnet_space1</title>
<polygon fill="none" stroke="#000000" points="1357.5,-108 1248.5,-108 1248.5,-72 1363.5,-72 1363.5,-102 1357.5,-108"/>
<polyline fill="none" stroke="#000000" points="1357.5,-108 1357.5,-102 "/>
<polyline fill="none" stroke="#000000" points="1363.5,-102 1357.5,-102 "/>
<text text-anchor="middle" x="1306" y="-86.3" font-family="Times,serif" font-size="14.00" fill="#000000">var.subnet_space1</text>
</g>
<!-- [root] azurerm_subnet.subnet (expand)&#45;&gt;[root] var.subnet_space1 -->
<g id="edge23" class="edge">
<title>[root] azurerm_subnet.subnet (expand)&#45;&gt;[root] var.subnet_space1</title>
<path fill="none" stroke="#000000" d="M1389.7377,-143.8314C1375.5448,-134.7074 1358.1718,-123.539 1342.9364,-113.7449"/>
<polygon fill="#000000" stroke="#000000" points="1344.5578,-110.6263 1334.2533,-108.1628 1340.7724,-116.5146 1344.5578,-110.6263"/>
</g>
<!-- [root] azurerm_subnet.subnet2 (expand) -->
<g id="node8" class="node">
<title>[root] azurerm_subnet.subnet2 (expand)</title>
<polygon fill="none" stroke="#000000" points="1703.5,-324 1554.5,-324 1554.5,-288 1703.5,-288 1703.5,-324"/>
<text text-anchor="middle" x="1629" y="-302.3" font-family="Times,serif" font-size="14.00" fill="#000000">azurerm_subnet.subnet2</text>
</g>
<!-- [root] azurerm_subnet.subnet2 (expand)&#45;&gt;[root] azurerm_virtual_network.vnet (expand) -->
<g id="edge24" class="edge">
<title>[root] azurerm_subnet.subnet2 (expand)&#45;&gt;[root] azurerm_virtual_network.vnet (expand)</title>
<path fill="none" stroke="#000000" d="M1656.4894,-287.7646C1667.8848,-278.5451 1679.8597,-266.2754 1686,-252 1692.3221,-237.302 1691.7843,-230.9179 1686,-216 1669.6774,-173.9032 1632.0124,-137.2608 1604.2129,-114.5054"/>
<polygon fill="#000000" stroke="#000000" points="1606.2958,-111.6896 1596.2988,-108.1807 1601.9256,-117.1579 1606.2958,-111.6896"/>
</g>
<!-- [root] var.subnet2 -->
<g id="node35" class="node">
<title>[root] var.subnet2</title>
<polygon fill="none" stroke="#000000" points="1671,-252 1599,-252 1599,-216 1677,-216 1677,-246 1671,-252"/>
<polyline fill="none" stroke="#000000" points="1671,-252 1671,-246 "/>
<polyline fill="none" stroke="#000000" points="1677,-246 1671,-246 "/>
<text text-anchor="middle" x="1638" y="-230.3" font-family="Times,serif" font-size="14.00" fill="#000000">var.subnet2</text>
</g>
<!-- [root] azurerm_subnet.subnet2 (expand)&#45;&gt;[root] var.subnet2 -->
<g id="edge25" class="edge">
<title>[root] azurerm_subnet.subnet2 (expand)&#45;&gt;[root] var.subnet2</title>
<path fill="none" stroke="#000000" d="M1631.2711,-287.8314C1632.2336,-280.131 1633.3782,-270.9743 1634.4479,-262.4166"/>
<polygon fill="#000000" stroke="#000000" points="1637.9309,-262.7702 1635.6983,-252.4133 1630.9849,-261.9019 1637.9309,-262.7702"/>
</g>
<!-- [root] var.subnet_space2 -->
<g id="node37" class="node">
<title>[root] var.subnet_space2</title>
<polygon fill="none" stroke="#000000" points="1574.5,-252 1465.5,-252 1465.5,-216 1580.5,-216 1580.5,-246 1574.5,-252"/>
<polyline fill="none" stroke="#000000" points="1574.5,-252 1574.5,-246 "/>
<polyline fill="none" stroke="#000000" points="1580.5,-246 1574.5,-246 "/>
<text text-anchor="middle" x="1523" y="-230.3" font-family="Times,serif" font-size="14.00" fill="#000000">var.subnet_space2</text>
</g>
<!-- [root] azurerm_subnet.subnet2 (expand)&#45;&gt;[root] var.subnet_space2 -->
<g id="edge26" class="edge">
<title>[root] azurerm_subnet.subnet2 (expand)&#45;&gt;[root] var.subnet_space2</title>
<path fill="none" stroke="#000000" d="M1602.2517,-287.8314C1588.9447,-278.7927 1572.684,-267.7476 1558.3625,-258.0198"/>
<polygon fill="#000000" stroke="#000000" points="1559.9785,-254.8864 1549.7397,-252.1628 1556.0453,-260.677 1559.9785,-254.8864"/>
</g>
<!-- [root] azurerm_subnet_network_security_group_association.subnet_association (expand)&#45;&gt;[root] azurerm_network_security_group.nsg (expand) -->
<g id="edge27" class="edge">
<title>[root] azurerm_subnet_network_security_group_association.subnet_association (expand)&#45;&gt;[root] azurerm_network_security_group.nsg (expand)</title>
<path fill="none" stroke="#000000" d="M1084,-215.8314C1084,-208.131 1084,-198.9743 1084,-190.4166"/>
<polygon fill="#000000" stroke="#000000" points="1087.5001,-190.4132 1084,-180.4133 1080.5001,-190.4133 1087.5001,-190.4132"/>
</g>
<!-- [root] azurerm_subnet_network_security_group_association.subnet_association (expand)&#45;&gt;[root] azurerm_subnet.subnet (expand) -->
<g id="edge28" class="edge">
<title>[root] azurerm_subnet_network_security_group_association.subnet_association (expand)&#45;&gt;[root] azurerm_subnet.subnet (expand)</title>
<path fill="none" stroke="#000000" d="M1167.8512,-215.9243C1219.3911,-204.8139 1285.1168,-190.6455 1336.262,-179.6202"/>
<polygon fill="#000000" stroke="#000000" points="1337.2503,-182.9876 1346.2881,-177.4588 1335.7751,-176.1448 1337.2503,-182.9876"/>
</g>
<!-- [root] azurerm_subnet_network_security_group_association.subnet_association2 (expand) -->
<g id="node10" class="node">
<title>[root] azurerm_subnet_network_security_group_association.subnet_association2 (expand)</title>
<polygon fill="none" stroke="#000000" points="1209.5,-396 788.5,-396 788.5,-360 1209.5,-360 1209.5,-396"/>
<text text-anchor="middle" x="999" y="-374.3" font-family="Times,serif" font-size="14.00" fill="#000000">azurerm_subnet_network_security_group_association.subnet_association2</text>
</g>
<!-- [root] azurerm_subnet_network_security_group_association.subnet_association2 (expand)&#45;&gt;[root] azurerm_network_security_group.nsg2 (expand) -->
<g id="edge29" class="edge">
<title>[root] azurerm_subnet_network_security_group_association.subnet_association2 (expand)&#45;&gt;[root] azurerm_network_security_group.nsg2 (expand)</title>
<path fill="none" stroke="#000000" d="M1063.7713,-359.9243C1099.8081,-349.8675 1144.8232,-337.3052 1182.3367,-326.8363"/>
<polygon fill="#000000" stroke="#000000" points="1183.5109,-330.1424 1192.2021,-324.0831 1181.6293,-323.4 1183.5109,-330.1424"/>
</g>
<!-- [root] azurerm_subnet_network_security_group_association.subnet_association2 (expand)&#45;&gt;[root] azurerm_subnet.subnet2 (expand) -->
<g id="edge30" class="edge">
<title>[root] azurerm_subnet_network_security_group_association.subnet_association2 (expand)&#45;&gt;[root] azurerm_subnet.subnet2 (expand)</title>
<path fill="none" stroke="#000000" d="M1156.7563,-359.9707C1279.5577,-345.9363 1445.241,-327.001 1544.1892,-315.6927"/>
<polygon fill="#000000" stroke="#000000" points="1544.6054,-319.168 1554.1433,-314.555 1543.8105,-312.2132 1544.6054,-319.168"/>
</g>
<!-- [root] azurerm_virtual_network.vnet (expand)&#45;&gt;[root] provider[&quot;registry.terraform.io/hashicorp/azurerm&quot;] -->
<g id="edge31" class="edge">
<title>[root] azurerm_virtual_network.vnet (expand)&#45;&gt;[root] provider[&quot;registry.terraform.io/hashicorp/azurerm&quot;]</title>
<path fill="none" stroke="#000000" d="M1480.3811,-73.7996C1476.5381,-73.1786 1472.732,-72.576 1469,-72 1367.1491,-56.2805 1250.5529,-41.1326 1168.158,-30.9022"/>
<polygon fill="#000000" stroke="#000000" points="1168.3845,-27.4036 1158.0302,-29.6481 1167.5242,-34.3506 1168.3845,-27.4036"/>
</g>
<!-- [root] azurerm_virtual_network.vnet (expand)&#45;&gt;[root] var.location -->
<g id="edge32" class="edge">
<title>[root] azurerm_virtual_network.vnet (expand)&#45;&gt;[root] var.location</title>
<path fill="none" stroke="#000000" d="M1526.0831,-71.8314C1500.5833,-61.5169 1468.6244,-48.5896 1442.4165,-37.9887"/>
<polygon fill="#000000" stroke="#000000" points="1443.6265,-34.7027 1433.0437,-34.1975 1441.0016,-41.1919 1443.6265,-34.7027"/>
</g>
<!-- [root] azurerm_virtual_network.vnet (expand)&#45;&gt;[root] var.rg2 -->
<g id="edge33" class="edge">
<title>[root] azurerm_virtual_network.vnet (expand)&#45;&gt;[root] var.rg2</title>
<path fill="none" stroke="#000000" d="M1547.5322,-71.8314C1535.9673,-62.8779 1521.8596,-51.9558 1509.3817,-42.2955"/>
<polygon fill="#000000" stroke="#000000" points="1511.5102,-39.5171 1501.4603,-36.1628 1507.225,-45.0521 1511.5102,-39.5171"/>
</g>
<!-- [root] var.vnet -->
<g id="node39" class="node">
<title>[root] var.vnet</title>
<polygon fill="none" stroke="#000000" points="1690.5,-36 1637.5,-36 1637.5,0 1696.5,0 1696.5,-30 1690.5,-36"/>
<polyline fill="none" stroke="#000000" points="1690.5,-36 1690.5,-30 "/>
<polyline fill="none" stroke="#000000" points="1696.5,-30 1690.5,-30 "/>
<text text-anchor="middle" x="1667" y="-14.3" font-family="Times,serif" font-size="14.00" fill="#000000">var.vnet</text>
</g>
<!-- [root] azurerm_virtual_network.vnet (expand)&#45;&gt;[root] var.vnet -->
<g id="edge34" class="edge">
<title>[root] azurerm_virtual_network.vnet (expand)&#45;&gt;[root] var.vnet</title>
<path fill="none" stroke="#000000" d="M1595.2249,-71.8314C1607.1628,-62.8779 1621.7256,-51.9558 1634.606,-42.2955"/>
<polygon fill="#000000" stroke="#000000" points="1636.8829,-44.9629 1642.7829,-36.1628 1632.6829,-39.3629 1636.8829,-44.9629"/>
</g>
<!-- [root] var.vnet_space -->
<g id="node40" class="node">
<title>[root] var.vnet_space</title>
<polygon fill="none" stroke="#000000" points="1613,-36 1523,-36 1523,0 1619,0 1619,-30 1613,-36"/>
<polyline fill="none" stroke="#000000" points="1613,-36 1613,-30 "/>
<polyline fill="none" stroke="#000000" points="1619,-30 1613,-30 "/>
<text text-anchor="middle" x="1571" y="-14.3" font-family="Times,serif" font-size="14.00" fill="#000000">var.vnet_space</text>
</g>
<!-- [root] azurerm_virtual_network.vnet (expand)&#45;&gt;[root] var.vnet_space -->
<g id="edge35" class="edge">
<title>[root] azurerm_virtual_network.vnet (expand)&#45;&gt;[root] var.vnet_space</title>
<path fill="none" stroke="#000000" d="M1571,-71.8314C1571,-64.131 1571,-54.9743 1571,-46.4166"/>
<polygon fill="#000000" stroke="#000000" points="1574.5001,-46.4132 1571,-36.4133 1567.5001,-46.4133 1574.5001,-46.4132"/>
</g>
<!-- [root] output.Linux_hostname -->
<g id="node12" class="node">
<title>[root] output.Linux_hostname</title>
<polygon fill="none" stroke="#000000" points="734,-468 594,-468 594,-432 740,-432 740,-462 734,-468"/>
<polyline fill="none" stroke="#000000" points="734,-468 734,-462 "/>
<polyline fill="none" stroke="#000000" points="740,-462 734,-462 "/>
<text text-anchor="middle" x="667" y="-446.3" font-family="Times,serif" font-size="14.00" fill="#000000">output.Linux_hostname</text>
</g>
<!-- [root] output.Linux_hostname&#45;&gt;[root] azurerm_linux_virtual_machine.vmlinux (expand) -->
<g id="edge36" class="edge">
<title>[root] output.Linux_hostname&#45;&gt;[root] azurerm_linux_virtual_machine.vmlinux (expand)</title>
<path fill="none" stroke="#000000" d="M662.7102,-431.8314C660.892,-424.131 658.7301,-414.9743 656.7095,-406.4166"/>
<polygon fill="#000000" stroke="#000000" points="660.0519,-405.3414 654.3476,-396.4133 653.2392,-406.95 660.0519,-405.3414"/>
</g>
<!-- [root] output.Linux_private_ip_addresses -->
<g id="node13" class="node">
<title>[root] output.Linux_private_ip_addresses</title>
<polygon fill="none" stroke="#000000" points="958,-468 758,-468 758,-432 964,-432 964,-462 958,-468"/>
<polyline fill="none" stroke="#000000" points="958,-468 958,-462 "/>
<polyline fill="none" stroke="#000000" points="964,-462 958,-462 "/>
<text text-anchor="middle" x="861" y="-446.3" font-family="Times,serif" font-size="14.00" fill="#000000">output.Linux_private_ip_addresses</text>
</g>
<!-- [root] output.Linux_private_ip_addresses&#45;&gt;[root] azurerm_linux_virtual_machine.vmlinux (expand) -->
<g id="edge37" class="edge">
<title>[root] output.Linux_private_ip_addresses&#45;&gt;[root] azurerm_linux_virtual_machine.vmlinux (expand)</title>
<path fill="none" stroke="#000000" d="M808.0281,-431.9243C779.0578,-422.0387 742.9927,-409.7321 712.6337,-399.3726"/>
<polygon fill="#000000" stroke="#000000" points="713.5882,-396.0002 702.9937,-396.0831 711.3275,-402.6251 713.5882,-396.0002"/>
</g>
<!-- [root] output.Linux_public_ip_addresses -->
<g id="node14" class="node">
<title>[root] output.Linux_public_ip_addresses</title>
<polygon fill="none" stroke="#000000" points="569.5,-468 372.5,-468 372.5,-432 575.5,-432 575.5,-462 569.5,-468"/>
<polyline fill="none" stroke="#000000" points="569.5,-468 569.5,-462 "/>
<polyline fill="none" stroke="#000000" points="575.5,-462 569.5,-462 "/>
<text text-anchor="middle" x="474" y="-446.3" font-family="Times,serif" font-size="14.00" fill="#000000">output.Linux_public_ip_addresses</text>
</g>
<!-- [root] output.Linux_public_ip_addresses&#45;&gt;[root] azurerm_linux_virtual_machine.vmlinux (expand) -->
<g id="edge38" class="edge">
<title>[root] output.Linux_public_ip_addresses&#45;&gt;[root] azurerm_linux_virtual_machine.vmlinux (expand)</title>
<path fill="none" stroke="#000000" d="M518.4122,-431.8314C542.1604,-422.1162 571.5746,-410.0831 596.5664,-399.8592"/>
<polygon fill="#000000" stroke="#000000" points="597.9769,-403.0638 605.9071,-396.038 595.3264,-396.585 597.9769,-403.0638"/>
</g>
<!-- [root] output.Subnet_address1 -->
<g id="node15" class="node">
<title>[root] output.Subnet_address1</title>
<polygon fill="none" stroke="#000000" points="1522,-396 1382,-396 1382,-360 1528,-360 1528,-390 1522,-396"/>
<polyline fill="none" stroke="#000000" points="1522,-396 1522,-390 "/>
<polyline fill="none" stroke="#000000" points="1528,-390 1522,-390 "/>
<text text-anchor="middle" x="1455" y="-374.3" font-family="Times,serif" font-size="14.00" fill="#000000">output.Subnet_address1</text>
</g>
<!-- [root] output.Subnet_address1&#45;&gt;[root] azurerm_subnet.subnet (expand) -->
<g id="edge39" class="edge">
<title>[root] output.Subnet_address1&#45;&gt;[root] azurerm_subnet.subnet (expand)</title>
<path fill="none" stroke="#000000" d="M1451.909,-359.9555C1445.4613,-322.3144 1430.5366,-235.1867 1422.8176,-190.1246"/>
<polygon fill="#000000" stroke="#000000" points="1426.2464,-189.4105 1421.1082,-180.1451 1419.3469,-190.5925 1426.2464,-189.4105"/>
</g>
<!-- [root] output.Subnet_address2 -->
<g id="node16" class="node">
<title>[root] output.Subnet_address2</title>
<polygon fill="none" stroke="#000000" points="1686,-396 1546,-396 1546,-360 1692,-360 1692,-390 1686,-396"/>
<polyline fill="none" stroke="#000000" points="1686,-396 1686,-390 "/>
<polyline fill="none" stroke="#000000" points="1692,-390 1686,-390 "/>
<text text-anchor="middle" x="1619" y="-374.3" font-family="Times,serif" font-size="14.00" fill="#000000">output.Subnet_address2</text>
</g>
<!-- [root] output.Subnet_address2&#45;&gt;[root] azurerm_subnet.subnet2 (expand) -->
<g id="edge40" class="edge">
<title>[root] output.Subnet_address2&#45;&gt;[root] azurerm_subnet.subnet2 (expand)</title>
<path fill="none" stroke="#000000" d="M1621.5234,-359.8314C1622.5929,-352.131 1623.8647,-342.9743 1625.0532,-334.4166"/>
<polygon fill="#000000" stroke="#000000" points="1628.5336,-334.7997 1626.4426,-324.4133 1621.6001,-333.8367 1628.5336,-334.7997"/>
</g>
<!-- [root] output.Subnet_name1 -->
<g id="node17" class="node">
<title>[root] output.Subnet_name1</title>
<polygon fill="none" stroke="#000000" points="1358,-396 1228,-396 1228,-360 1364,-360 1364,-390 1358,-396"/>
<polyline fill="none" stroke="#000000" points="1358,-396 1358,-390 "/>
<polyline fill="none" stroke="#000000" points="1364,-390 1358,-390 "/>
<text text-anchor="middle" x="1296" y="-374.3" font-family="Times,serif" font-size="14.00" fill="#000000">output.Subnet_name1</text>
</g>
<!-- [root] output.Subnet_name1&#45;&gt;[root] azurerm_subnet.subnet (expand) -->
<g id="edge41" class="edge">
<title>[root] output.Subnet_name1&#45;&gt;[root] azurerm_subnet.subnet (expand)</title>
<path fill="none" stroke="#000000" d="M1337.3672,-359.814C1352.8679,-351.0718 1369.2983,-339.1522 1380,-324 1408.4975,-283.6515 1415.8792,-224.9277 1417.6393,-190.3775"/>
<polygon fill="#000000" stroke="#000000" points="1421.1489,-190.1895 1418.0329,-180.0633 1414.154,-189.9225 1421.1489,-190.1895"/>
</g>
<!-- [root] output.Subnet_name2 -->
<g id="node18" class="node">
<title>[root] output.Subnet_name2</title>
<polygon fill="none" stroke="#000000" points="1840,-396 1710,-396 1710,-360 1846,-360 1846,-390 1840,-396"/>
<polyline fill="none" stroke="#000000" points="1840,-396 1840,-390 "/>
<polyline fill="none" stroke="#000000" points="1846,-390 1840,-390 "/>
<text text-anchor="middle" x="1778" y="-374.3" font-family="Times,serif" font-size="14.00" fill="#000000">output.Subnet_name2</text>
</g>
<!-- [root] output.Subnet_name2&#45;&gt;[root] azurerm_subnet.subnet2 (expand) -->
<g id="edge42" class="edge">
<title>[root] output.Subnet_name2&#45;&gt;[root] azurerm_subnet.subnet2 (expand)</title>
<path fill="none" stroke="#000000" d="M1740.401,-359.8314C1720.6503,-350.2874 1696.2703,-338.5065 1675.3583,-328.4013"/>
<polygon fill="#000000" stroke="#000000" points="1676.8553,-325.2376 1666.3286,-324.038 1673.8097,-331.5403 1676.8553,-325.2376"/>
</g>
<!-- [root] output.Virtual_network_name -->
<g id="node19" class="node">
<title>[root] output.Virtual_network_name</title>
<polygon fill="none" stroke="#000000" points="1911,-180 1737,-180 1737,-144 1917,-144 1917,-174 1911,-180"/>
<polyline fill="none" stroke="#000000" points="1911,-180 1911,-174 "/>
<polyline fill="none" stroke="#000000" points="1917,-174 1911,-174 "/>
<text text-anchor="middle" x="1827" y="-158.3" font-family="Times,serif" font-size="14.00" fill="#000000">output.Virtual_network_name</text>
</g>
<!-- [root] output.Virtual_network_name&#45;&gt;[root] azurerm_virtual_network.vnet (expand) -->
<g id="edge43" class="edge">
<title>[root] output.Virtual_network_name&#45;&gt;[root] azurerm_virtual_network.vnet (expand)</title>
<path fill="none" stroke="#000000" d="M1762.7308,-143.9243C1726.9733,-133.8675 1682.3073,-121.3052 1645.0845,-110.8363"/>
<polygon fill="#000000" stroke="#000000" points="1645.8698,-107.4214 1635.2956,-108.0831 1643.9745,-114.1599 1645.8698,-107.4214"/>
</g>
<!-- [root] output.address_space -->
<g id="node20" class="node">
<title>[root] output.address_space</title>
<polygon fill="none" stroke="#000000" points="2050,-252 1924,-252 1924,-216 2056,-216 2056,-246 2050,-252"/>
<polyline fill="none" stroke="#000000" points="2050,-252 2050,-246 "/>
<polyline fill="none" stroke="#000000" points="2056,-246 2050,-246 "/>
<text text-anchor="middle" x="1990" y="-230.3" font-family="Times,serif" font-size="14.00" fill="#000000">output.address_space</text>
</g>
<!-- [root] output.address_space&#45;&gt;[root] azurerm_virtual_network.vnet (expand) -->
<g id="edge44" class="edge">
<title>[root] output.address_space&#45;&gt;[root] azurerm_virtual_network.vnet (expand)</title>
<path fill="none" stroke="#000000" d="M1982.4096,-215.767C1972.6462,-194.7677 1953.593,-160.986 1926,-144 1884.5304,-118.4717 1761.4638,-103.9905 1671.837,-96.5805"/>
<polygon fill="#000000" stroke="#000000" points="1671.8797,-93.0726 1661.6301,-95.7551 1671.3153,-100.0498 1671.8797,-93.0726"/>
</g>
<!-- [root] var.pub_key -->
<g id="node32" class="node">
<title>[root] var.pub_key</title>
<polygon fill="none" stroke="#000000" points="1967,-468 1891,-468 1891,-432 1973,-432 1973,-462 1967,-468"/>
<polyline fill="none" stroke="#000000" points="1967,-468 1967,-462 "/>
<polyline fill="none" stroke="#000000" points="1973,-462 1967,-462 "/>
<text text-anchor="middle" x="1932" y="-446.3" font-family="Times,serif" font-size="14.00" fill="#000000">var.pub_key</text>
</g>
<!-- [root] provider[&quot;registry.terraform.io/hashicorp/azurerm&quot;] (close) -->
<g id="node42" class="node">
<title>[root] provider[&quot;registry.terraform.io/hashicorp/azurerm&quot;] (close)</title>
<ellipse fill="none" stroke="#000000" cx="1224" cy="-450" rx="241.5573" ry="18"/>
<text text-anchor="middle" x="1224" y="-446.3" font-family="Times,serif" font-size="14.00" fill="#000000">[root] provider[&quot;registry.terraform.io/hashicorp/azurerm&quot;] (close)</text>
</g>
<!-- [root] provider[&quot;registry.terraform.io/hashicorp/azurerm&quot;] (close)&#45;&gt;[root] azurerm_linux_virtual_machine.vmlinux (expand) -->
<g id="edge45" class="edge">
<title>[root] provider[&quot;registry.terraform.io/hashicorp/azurerm&quot;] (close)&#45;&gt;[root] azurerm_linux_virtual_machine.vmlinux (expand)</title>
<path fill="none" stroke="#000000" d="M1093.4619,-434.7819C1007.3333,-424.5927 891.728,-410.6355 780.8669,-396.2337"/>
<polygon fill="#000000" stroke="#000000" points="781.2113,-392.7491 770.843,-394.9286 780.3074,-399.6905 781.2113,-392.7491"/>
</g>
<!-- [root] provider[&quot;registry.terraform.io/hashicorp/azurerm&quot;] (close)&#45;&gt;[root] azurerm_subnet_network_security_group_association.subnet_association2 (expand) -->
<g id="edge46" class="edge">
<title>[root] provider[&quot;registry.terraform.io/hashicorp/azurerm&quot;] (close)&#45;&gt;[root] azurerm_subnet_network_security_group_association.subnet_association2 (expand)</title>
<path fill="none" stroke="#000000" d="M1168.9588,-432.3868C1137.5799,-422.3456 1098.0486,-409.6956 1065.0091,-399.1229"/>
<polygon fill="#000000" stroke="#000000" points="1066.0198,-395.7715 1055.4288,-396.0572 1063.8863,-402.4385 1066.0198,-395.7715"/>
</g>
<!-- [root] root -->
<g id="node43" class="node">
<title>[root] root</title>
<ellipse fill="none" stroke="#000000" cx="1532" cy="-522" rx="47.3916" ry="18"/>
<text text-anchor="middle" x="1532" y="-518.3" font-family="Times,serif" font-size="14.00" fill="#000000">[root] root</text>
</g>
<!-- [root] root&#45;&gt;[root] output.Linux_hostname -->
<g id="edge47" class="edge">
<title>[root] root&#45;&gt;[root] output.Linux_hostname</title>
<path fill="none" stroke="#000000" d="M1484.5245,-521.1567C1363.5225,-518.4884 1033.6923,-507.9615 750.2818,-468.064"/>
<polygon fill="#000000" stroke="#000000" points="750.6134,-464.576 740.22,-466.6323 749.6272,-471.5062 750.6134,-464.576"/>
</g>
<!-- [root] root&#45;&gt;[root] output.Linux_private_ip_addresses -->
<g id="edge48" class="edge">
<title>[root] root&#45;&gt;[root] output.Linux_private_ip_addresses</title>
<path fill="none" stroke="#000000" d="M1485.141,-518.4777C1390.5882,-511.1528 1170.0084,-492.966 974.2871,-468.1225"/>
<polygon fill="#000000" stroke="#000000" points="974.4645,-464.6168 964.1014,-466.8206 973.577,-471.5603 974.4645,-464.6168"/>
</g>
<!-- [root] root&#45;&gt;[root] output.Linux_public_ip_addresses -->
<g id="edge49" class="edge">
<title>[root] root&#45;&gt;[root] output.Linux_public_ip_addresses</title>
<path fill="none" stroke="#000000" d="M1484.5582,-521.0354C1347.1133,-517.8703 936.6902,-505.8051 585.6723,-468.0004"/>
<polygon fill="#000000" stroke="#000000" points="585.8855,-464.5031 575.5661,-466.903 585.1298,-471.4622 585.8855,-464.5031"/>
</g>
<!-- [root] root&#45;&gt;[root] output.Subnet_address1 -->
<g id="edge50" class="edge">
<title>[root] root&#45;&gt;[root] output.Subnet_address1</title>
<path fill="none" stroke="#000000" d="M1529.9184,-503.7124C1527.1421,-484.7521 1520.9788,-454.756 1508,-432 1502.0101,-421.4978 1493.4765,-411.5672 1485.0025,-403.1547"/>
<polygon fill="#000000" stroke="#000000" points="1487.3032,-400.513 1477.6364,-396.1765 1482.489,-405.5948 1487.3032,-400.513"/>
</g>
<!-- [root] root&#45;&gt;[root] output.Subnet_address2 -->
<g id="edge51" class="edge">
<title>[root] root&#45;&gt;[root] output.Subnet_address2</title>
<path fill="none" stroke="#000000" d="M1542.6679,-504.3428C1557.653,-479.5398 1585.0658,-434.167 1602.6388,-405.0806"/>
<polygon fill="#000000" stroke="#000000" points="1605.7949,-406.625 1607.9704,-396.256 1599.8034,-403.0052 1605.7949,-406.625"/>
</g>
<!-- [root] root&#45;&gt;[root] output.Subnet_name1 -->
<g id="edge52" class="edge">
<title>[root] root&#45;&gt;[root] output.Subnet_name1</title>
<path fill="none" stroke="#000000" d="M1525.1957,-504.0696C1516.5587,-483.681 1499.743,-450.7946 1475,-432 1466.3608,-425.4378 1417.9276,-411.0025 1373.6196,-398.7069"/>
<polygon fill="#000000" stroke="#000000" points="1374.521,-395.3249 1363.9502,-396.0388 1372.659,-402.0727 1374.521,-395.3249"/>
</g>
<!-- [root] root&#45;&gt;[root] output.Subnet_name2 -->
<g id="edge53" class="edge">
<title>[root] root&#45;&gt;[root] output.Subnet_name2</title>
<path fill="none" stroke="#000000" d="M1557.8614,-506.8616C1600.9188,-481.6573 1687.5787,-430.9296 1738.3804,-401.192"/>
<polygon fill="#000000" stroke="#000000" points="1740.264,-404.145 1747.126,-396.0726 1736.7277,-398.1038 1740.264,-404.145"/>
</g>
<!-- [root] root&#45;&gt;[root] output.Virtual_network_name -->
<g id="edge54" class="edge">
<title>[root] root&#45;&gt;[root] output.Virtual_network_name</title>
<path fill="none" stroke="#000000" d="M1572.3343,-512.2777C1651.3753,-492.3217 1821.8479,-444.5176 1855,-396 1898.4235,-332.4503 1862.9086,-235.9406 1841.0213,-189.2278"/>
<polygon fill="#000000" stroke="#000000" points="1844.0887,-187.531 1836.5909,-180.0455 1837.7842,-190.5729 1844.0887,-187.531"/>
</g>
<!-- [root] root&#45;&gt;[root] output.address_space -->
<g id="edge55" class="edge">
<title>[root] root&#45;&gt;[root] output.address_space</title>
<path fill="none" stroke="#000000" d="M1579.216,-519.755C1689.1718,-514.0521 1955.0586,-497.342 1982,-468 2033.9938,-411.3733 2013.5317,-310.7039 1999.2924,-261.9711"/>
<polygon fill="#000000" stroke="#000000" points="2002.5534,-260.6653 1996.2895,-252.1205 1995.8576,-262.7065 2002.5534,-260.6653"/>
</g>
<!-- [root] root&#45;&gt;[root] var.pub_key -->
<g id="edge57" class="edge">
<title>[root] root&#45;&gt;[root] var.pub_key</title>
<path fill="none" stroke="#000000" d="M1577.943,-517.1943C1644.4985,-509.6958 1771.336,-493.385 1877,-468 1878.2639,-467.6964 1879.5405,-467.3774 1880.8253,-467.0456"/>
<polygon fill="#000000" stroke="#000000" points="1882.0624,-470.3345 1890.761,-464.2859 1880.189,-463.5899 1882.0624,-470.3345"/>
</g>
<!-- [root] root&#45;&gt;[root] provider[&quot;registry.terraform.io/hashicorp/azurerm&quot;] (close) -->
<g id="edge56" class="edge">
<title>[root] root&#45;&gt;[root] provider[&quot;registry.terraform.io/hashicorp/azurerm&quot;] (close)</title>
<path fill="none" stroke="#000000" d="M1491.4177,-512.5132C1444.7647,-501.6073 1366.9505,-483.417 1307.2556,-469.4624"/>
<polygon fill="#000000" stroke="#000000" points="1307.9972,-466.0414 1297.4629,-467.1732 1306.4037,-472.8576 1307.9972,-466.0414"/>
</g>
</g>
</svg>
